<mxfile host="app.diagrams.net" agent="Mozilla/5.0 (Windows NT 10.0; Win64; x64) AppleWebKit/537.36 (KHTML, like Gecko) Chrome/135.0.0.0 Safari/537.36" version="26.2.12">
  <diagram name="Sayfa -1" id="FCmbo-QQ5I52QUVk6tiY">
    <mxGraphModel dx="1839" dy="423" grid="1" gridSize="10" guides="1" tooltips="1" connect="1" arrows="1" fold="1" page="1" pageScale="1" pageWidth="827" pageHeight="1169" math="0" shadow="0">
      <root>
        <mxCell id="0" />
        <mxCell id="1" parent="0" />
        <mxCell id="sYUhzM4Op0ek-H_ljY2F-35" value="" style="edgeStyle=orthogonalEdgeStyle;rounded=0;orthogonalLoop=1;jettySize=auto;html=1;strokeColor=#CC0000;" parent="1" source="sYUhzM4Op0ek-H_ljY2F-1" target="sYUhzM4Op0ek-H_ljY2F-5" edge="1">
          <mxGeometry relative="1" as="geometry" />
        </mxCell>
        <mxCell id="sYUhzM4Op0ek-H_ljY2F-1" value="3.4.2&lt;div&gt;1&lt;/div&gt;" style="whiteSpace=wrap;html=1;aspect=fixed;strokeColor=#EEEEEE;fontColor=#FFFFFF;fillColor=#56517E;" parent="1" vertex="1">
          <mxGeometry x="-107" y="120" width="40" height="40" as="geometry" />
        </mxCell>
        <mxCell id="sYUhzM4Op0ek-H_ljY2F-2" value="3.4.1&lt;div&gt;2&lt;/div&gt;" style="whiteSpace=wrap;html=1;aspect=fixed;strokeColor=#EEEEEE;fontColor=#FFFFFF;fillColor=#56517E;" parent="1" vertex="1">
          <mxGeometry x="-167" y="120" width="40" height="40" as="geometry" />
        </mxCell>
        <mxCell id="sYUhzM4Op0ek-H_ljY2F-3" value="3.3.2&lt;div&gt;1&lt;/div&gt;" style="whiteSpace=wrap;html=1;aspect=fixed;strokeColor=#EEEEEE;fontColor=#FFFFFF;fillColor=#56517E;" parent="1" vertex="1">
          <mxGeometry x="-227" y="90" width="40" height="40" as="geometry" />
        </mxCell>
        <mxCell id="sYUhzM4Op0ek-H_ljY2F-4" value="3.3.1&lt;div&gt;2&lt;/div&gt;" style="whiteSpace=wrap;html=1;aspect=fixed;strokeColor=#EEEEEE;fontColor=#FFFFFF;fillColor=#56517E;" parent="1" vertex="1">
          <mxGeometry x="-287" y="120" width="40" height="40" as="geometry" />
        </mxCell>
        <mxCell id="sYUhzM4Op0ek-H_ljY2F-5" value="3.4.3&lt;div&gt;1&lt;/div&gt;" style="whiteSpace=wrap;html=1;aspect=fixed;strokeColor=#EEEEEE;fontColor=#FFFFFF;fillColor=#56517E;" parent="1" vertex="1">
          <mxGeometry x="-47" y="120" width="40" height="40" as="geometry" />
        </mxCell>
        <mxCell id="sYUhzM4Op0ek-H_ljY2F-6" value="3.2.2.3&lt;div&gt;1&lt;/div&gt;" style="whiteSpace=wrap;html=1;aspect=fixed;strokeColor=#EEEEEE;fontColor=#FFFFFF;fillColor=#56517E;" parent="1" vertex="1">
          <mxGeometry x="-343" y="120" width="40" height="40" as="geometry" />
        </mxCell>
        <mxCell id="sYUhzM4Op0ek-H_ljY2F-21" value="" style="edgeStyle=orthogonalEdgeStyle;rounded=0;orthogonalLoop=1;jettySize=auto;html=1;strokeColor=#CC0000;" parent="1" source="sYUhzM4Op0ek-H_ljY2F-7" target="sYUhzM4Op0ek-H_ljY2F-6" edge="1">
          <mxGeometry relative="1" as="geometry" />
        </mxCell>
        <mxCell id="sYUhzM4Op0ek-H_ljY2F-7" value="3.2.2.2&lt;div&gt;1&lt;/div&gt;" style="whiteSpace=wrap;html=1;aspect=fixed;strokeColor=#EEEEEE;fontColor=#FFFFFF;fillColor=#56517E;" parent="1" vertex="1">
          <mxGeometry x="-407" y="120" width="40" height="40" as="geometry" />
        </mxCell>
        <mxCell id="sYUhzM4Op0ek-H_ljY2F-20" value="" style="edgeStyle=orthogonalEdgeStyle;rounded=0;orthogonalLoop=1;jettySize=auto;html=1;strokeColor=#CC0000;" parent="1" source="sYUhzM4Op0ek-H_ljY2F-8" target="sYUhzM4Op0ek-H_ljY2F-7" edge="1">
          <mxGeometry relative="1" as="geometry">
            <Array as="points">
              <mxPoint x="-410" y="140" />
              <mxPoint x="-410" y="140" />
            </Array>
          </mxGeometry>
        </mxCell>
        <mxCell id="sYUhzM4Op0ek-H_ljY2F-8" value="3.2.2.1&lt;div&gt;2&lt;/div&gt;" style="whiteSpace=wrap;html=1;aspect=fixed;strokeColor=#EEEEEE;fontColor=#FFFFFF;fillColor=#56517E;" parent="1" vertex="1">
          <mxGeometry x="-467" y="120" width="40" height="40" as="geometry" />
        </mxCell>
        <mxCell id="sYUhzM4Op0ek-H_ljY2F-9" value="3.3.3&lt;div&gt;2&lt;/div&gt;" style="whiteSpace=wrap;html=1;aspect=fixed;strokeColor=#EEEEEE;fontColor=#FFFFFF;fillColor=#56517E;" parent="1" vertex="1">
          <mxGeometry x="-227" y="180" width="40" height="40" as="geometry" />
        </mxCell>
        <mxCell id="sYUhzM4Op0ek-H_ljY2F-19" value="" style="edgeStyle=orthogonalEdgeStyle;rounded=0;orthogonalLoop=1;jettySize=auto;html=1;strokeColor=#CC0000;" parent="1" source="sYUhzM4Op0ek-H_ljY2F-10" target="sYUhzM4Op0ek-H_ljY2F-8" edge="1">
          <mxGeometry relative="1" as="geometry">
            <Array as="points">
              <mxPoint x="-480" y="140" />
              <mxPoint x="-480" y="140" />
            </Array>
          </mxGeometry>
        </mxCell>
        <mxCell id="sYUhzM4Op0ek-H_ljY2F-10" value="3.2.2&lt;div&gt;4&lt;/div&gt;" style="whiteSpace=wrap;html=1;aspect=fixed;strokeColor=#EEEEEE;fontColor=#FFFFFF;fillColor=#56517E;" parent="1" vertex="1">
          <mxGeometry x="-527" y="120" width="40" height="40" as="geometry" />
        </mxCell>
        <mxCell id="sYUhzM4Op0ek-H_ljY2F-18" value="" style="edgeStyle=orthogonalEdgeStyle;rounded=0;orthogonalLoop=1;jettySize=auto;html=1;strokeColor=#CC0000;" parent="1" source="sYUhzM4Op0ek-H_ljY2F-11" target="sYUhzM4Op0ek-H_ljY2F-10" edge="1">
          <mxGeometry relative="1" as="geometry">
            <Array as="points">
              <mxPoint x="-540" y="140" />
              <mxPoint x="-540" y="140" />
            </Array>
          </mxGeometry>
        </mxCell>
        <mxCell id="sYUhzM4Op0ek-H_ljY2F-11" value="3.2.1&lt;div&gt;2&lt;/div&gt;" style="whiteSpace=wrap;html=1;aspect=fixed;strokeColor=#EEEEEE;fontColor=#FFFFFF;fillColor=#56517E;" parent="1" vertex="1">
          <mxGeometry x="-587" y="120" width="40" height="40" as="geometry" />
        </mxCell>
        <mxCell id="sYUhzM4Op0ek-H_ljY2F-12" value="3.1.4&lt;div&gt;3&lt;/div&gt;" style="whiteSpace=wrap;html=1;aspect=fixed;strokeColor=#EEEEEE;fontColor=#FFFFFF;fillColor=#56517E;" parent="1" vertex="1">
          <mxGeometry x="-647" y="180" width="40" height="40" as="geometry" />
        </mxCell>
        <mxCell id="sYUhzM4Op0ek-H_ljY2F-13" value="3.1.3&lt;div&gt;3&lt;/div&gt;" style="whiteSpace=wrap;html=1;aspect=fixed;strokeColor=#EEEEEE;fontColor=#FFFFFF;fillColor=#56517E;" parent="1" vertex="1">
          <mxGeometry x="-647" y="90" width="40" height="40" as="geometry" />
        </mxCell>
        <mxCell id="sYUhzM4Op0ek-H_ljY2F-14" value="3.1.2&lt;div&gt;3&lt;/div&gt;" style="whiteSpace=wrap;html=1;aspect=fixed;strokeColor=#EEEEEE;fontColor=#FFFFFF;fillColor=#56517E;" parent="1" vertex="1">
          <mxGeometry x="-707" y="120" width="40" height="40" as="geometry" />
        </mxCell>
        <mxCell id="sYUhzM4Op0ek-H_ljY2F-15" value="3.1.1&lt;div&gt;9&lt;/div&gt;" style="whiteSpace=wrap;html=1;aspect=fixed;strokeColor=#EEEEEE;fontColor=#FFFFFF;fillColor=#56517E;" parent="1" vertex="1">
          <mxGeometry x="-767" y="120" width="40" height="40" as="geometry" />
        </mxCell>
        <mxCell id="sYUhzM4Op0ek-H_ljY2F-16" value="0" style="ellipse;whiteSpace=wrap;html=1;aspect=fixed;strokeColor=#EEEEEE;fontColor=#FFFFFF;fillColor=#56517E;" parent="1" vertex="1">
          <mxGeometry x="-827" y="120" width="40" height="40" as="geometry" />
        </mxCell>
        <mxCell id="sYUhzM4Op0ek-H_ljY2F-25" value="" style="endArrow=classic;html=1;rounded=0;strokeColor=#CC0000;entryX=0;entryY=0.5;entryDx=0;entryDy=0;exitX=1;exitY=0.5;exitDx=0;exitDy=0;" parent="1" source="sYUhzM4Op0ek-H_ljY2F-6" target="sYUhzM4Op0ek-H_ljY2F-4" edge="1">
          <mxGeometry width="50" height="50" relative="1" as="geometry">
            <mxPoint x="-297" y="138" as="sourcePoint" />
            <mxPoint x="-253" y="90" as="targetPoint" />
            <Array as="points">
              <mxPoint x="-300" y="140" />
            </Array>
          </mxGeometry>
        </mxCell>
        <mxCell id="sYUhzM4Op0ek-H_ljY2F-28" value="" style="endArrow=classic;html=1;rounded=0;strokeColor=#182E3E;" parent="1" edge="1">
          <mxGeometry width="50" height="50" relative="1" as="geometry">
            <mxPoint x="-667" y="160" as="sourcePoint" />
            <mxPoint x="-647" y="180" as="targetPoint" />
            <Array as="points">
              <mxPoint x="-657" y="170" />
            </Array>
          </mxGeometry>
        </mxCell>
        <mxCell id="sYUhzM4Op0ek-H_ljY2F-30" value="" style="endArrow=classic;html=1;rounded=0;strokeColor=#CC0000;" parent="1" edge="1">
          <mxGeometry width="50" height="50" relative="1" as="geometry">
            <mxPoint x="-247" y="160" as="sourcePoint" />
            <mxPoint x="-227" y="180" as="targetPoint" />
            <Array as="points" />
          </mxGeometry>
        </mxCell>
        <mxCell id="sYUhzM4Op0ek-H_ljY2F-32" value="" style="endArrow=classic;html=1;rounded=0;strokeColor=#CC0000;" parent="1" edge="1">
          <mxGeometry width="50" height="50" relative="1" as="geometry">
            <mxPoint x="-187" y="180" as="sourcePoint" />
            <mxPoint x="-167" y="160" as="targetPoint" />
          </mxGeometry>
        </mxCell>
        <mxCell id="sYUhzM4Op0ek-H_ljY2F-37" value="" style="endArrow=classic;html=1;rounded=0;strokeColor=#CC0000;" parent="1" edge="1">
          <mxGeometry width="50" height="50" relative="1" as="geometry">
            <mxPoint x="-127" y="139.67000000000002" as="sourcePoint" />
            <mxPoint x="-107" y="139.67000000000002" as="targetPoint" />
            <Array as="points">
              <mxPoint x="-117" y="139.67000000000002" />
            </Array>
          </mxGeometry>
        </mxCell>
        <mxCell id="sYUhzM4Op0ek-H_ljY2F-41" value="" style="endArrow=classic;html=1;rounded=0;strokeColor=#182E3E;" parent="1" edge="1">
          <mxGeometry width="50" height="50" relative="1" as="geometry">
            <mxPoint x="-607" y="180" as="sourcePoint" />
            <mxPoint x="-587" y="160" as="targetPoint" />
            <Array as="points">
              <mxPoint x="-597" y="170" />
            </Array>
          </mxGeometry>
        </mxCell>
        <mxCell id="sYUhzM4Op0ek-H_ljY2F-42" value="" style="endArrow=classic;html=1;rounded=0;strokeColor=#CC0000;exitX=1;exitY=0.5;exitDx=0;exitDy=0;entryX=0;entryY=0;entryDx=0;entryDy=0;" parent="1" edge="1" target="sYUhzM4Op0ek-H_ljY2F-11" source="sYUhzM4Op0ek-H_ljY2F-13">
          <mxGeometry width="50" height="50" relative="1" as="geometry">
            <mxPoint x="-607" y="139.67000000000002" as="sourcePoint" />
            <mxPoint x="-587" y="139.67000000000002" as="targetPoint" />
          </mxGeometry>
        </mxCell>
        <mxCell id="sYUhzM4Op0ek-H_ljY2F-43" value="" style="endArrow=classic;html=1;rounded=0;strokeColor=#CC0000;" parent="1" edge="1">
          <mxGeometry width="50" height="50" relative="1" as="geometry">
            <mxPoint x="-727" y="139.67000000000002" as="sourcePoint" />
            <mxPoint x="-707" y="139.67000000000002" as="targetPoint" />
          </mxGeometry>
        </mxCell>
        <mxCell id="sYUhzM4Op0ek-H_ljY2F-44" value="" style="endArrow=classic;html=1;rounded=0;strokeColor=#CC0000;" parent="1" edge="1">
          <mxGeometry width="50" height="50" relative="1" as="geometry">
            <mxPoint x="-787" y="139.67000000000002" as="sourcePoint" />
            <mxPoint x="-767" y="139.67000000000002" as="targetPoint" />
          </mxGeometry>
        </mxCell>
        <mxCell id="sYUhzM4Op0ek-H_ljY2F-49" value="&lt;span style=&quot;background-color: rgb(255, 255, 255);&quot;&gt;&lt;font style=&quot;color: rgb(0, 0, 0);&quot;&gt;Selma Adıyaman&amp;nbsp;&lt;/font&gt;&lt;/span&gt;&lt;div&gt;&lt;span style=&quot;background-color: rgb(255, 255, 255);&quot;&gt;&lt;font style=&quot;color: rgb(0, 0, 0);&quot;&gt;B22106055&lt;/font&gt;&lt;/span&gt;&lt;/div&gt;" style="text;html=1;align=center;verticalAlign=middle;whiteSpace=wrap;rounded=0;fontColor=#FFFFFF;strokeColor=none;fillColor=#FFFFFF;" parent="1" vertex="1">
          <mxGeometry x="-262" y="380" width="255" height="90" as="geometry" />
        </mxCell>
        <mxCell id="tQ6YW1M86Eb9XzrXPYSI-5" value="" style="edgeStyle=orthogonalEdgeStyle;rounded=0;orthogonalLoop=1;jettySize=auto;html=1;exitX=1;exitY=0.5;exitDx=0;exitDy=0;exitPerimeter=0;strokeColor=#CC0000;shadow=0;" parent="1" source="tQ6YW1M86Eb9XzrXPYSI-1" target="tQ6YW1M86Eb9XzrXPYSI-4" edge="1">
          <mxGeometry relative="1" as="geometry" />
        </mxCell>
        <mxCell id="tQ6YW1M86Eb9XzrXPYSI-1" value="3.1.1&lt;div&gt;9&lt;/div&gt;" style="whiteSpace=wrap;html=1;aspect=fixed;fillColor=#e1d5e7;strokeColor=#CC0000;shadow=0;" parent="1" vertex="1">
          <mxGeometry x="-767" y="280" width="40" height="40" as="geometry" />
        </mxCell>
        <mxCell id="tQ6YW1M86Eb9XzrXPYSI-7" value="" style="edgeStyle=orthogonalEdgeStyle;rounded=0;orthogonalLoop=1;jettySize=auto;html=1;strokeColor=#CC0000;shadow=0;" parent="1" source="tQ6YW1M86Eb9XzrXPYSI-4" target="tQ6YW1M86Eb9XzrXPYSI-6" edge="1">
          <mxGeometry relative="1" as="geometry" />
        </mxCell>
        <mxCell id="tQ6YW1M86Eb9XzrXPYSI-4" value="3.1.2&lt;div&gt;3&lt;/div&gt;" style="whiteSpace=wrap;html=1;aspect=fixed;fillColor=#e1d5e7;strokeColor=#CC0000;shadow=0;" parent="1" vertex="1">
          <mxGeometry x="-707" y="280" width="40" height="40" as="geometry" />
        </mxCell>
        <mxCell id="tQ6YW1M86Eb9XzrXPYSI-9" value="" style="edgeStyle=orthogonalEdgeStyle;rounded=0;orthogonalLoop=1;jettySize=auto;html=1;strokeColor=#CC0000;shadow=0;" parent="1" source="tQ6YW1M86Eb9XzrXPYSI-6" target="tQ6YW1M86Eb9XzrXPYSI-8" edge="1">
          <mxGeometry relative="1" as="geometry" />
        </mxCell>
        <mxCell id="tQ6YW1M86Eb9XzrXPYSI-6" value="3.1.3&lt;div&gt;3&lt;/div&gt;" style="whiteSpace=wrap;html=1;aspect=fixed;fillColor=#e1d5e7;strokeColor=#CC0000;shadow=0;" parent="1" vertex="1">
          <mxGeometry x="-647" y="280" width="40" height="40" as="geometry" />
        </mxCell>
        <mxCell id="tQ6YW1M86Eb9XzrXPYSI-11" value="" style="edgeStyle=orthogonalEdgeStyle;rounded=0;orthogonalLoop=1;jettySize=auto;html=1;strokeColor=#CC0000;shadow=0;" parent="1" source="tQ6YW1M86Eb9XzrXPYSI-8" target="tQ6YW1M86Eb9XzrXPYSI-10" edge="1">
          <mxGeometry relative="1" as="geometry" />
        </mxCell>
        <mxCell id="tQ6YW1M86Eb9XzrXPYSI-8" value="3.2.1&lt;div&gt;2&lt;/div&gt;" style="whiteSpace=wrap;html=1;aspect=fixed;fillColor=#e1d5e7;strokeColor=#CC0000;shadow=0;" parent="1" vertex="1">
          <mxGeometry x="-587" y="280" width="40" height="40" as="geometry" />
        </mxCell>
        <mxCell id="tQ6YW1M86Eb9XzrXPYSI-13" value="" style="edgeStyle=orthogonalEdgeStyle;rounded=0;orthogonalLoop=1;jettySize=auto;html=1;strokeColor=#CC0000;shadow=0;" parent="1" source="tQ6YW1M86Eb9XzrXPYSI-10" target="tQ6YW1M86Eb9XzrXPYSI-12" edge="1">
          <mxGeometry relative="1" as="geometry" />
        </mxCell>
        <mxCell id="tQ6YW1M86Eb9XzrXPYSI-10" value="3.2.2&lt;div&gt;4&lt;/div&gt;" style="whiteSpace=wrap;html=1;aspect=fixed;fillColor=#e1d5e7;strokeColor=#CC0000;shadow=0;" parent="1" vertex="1">
          <mxGeometry x="-527" y="280" width="40" height="40" as="geometry" />
        </mxCell>
        <mxCell id="tQ6YW1M86Eb9XzrXPYSI-16" value="" style="edgeStyle=orthogonalEdgeStyle;rounded=0;orthogonalLoop=1;jettySize=auto;html=1;strokeColor=#CC0000;shadow=0;" parent="1" source="tQ6YW1M86Eb9XzrXPYSI-12" target="tQ6YW1M86Eb9XzrXPYSI-15" edge="1">
          <mxGeometry relative="1" as="geometry" />
        </mxCell>
        <mxCell id="tQ6YW1M86Eb9XzrXPYSI-12" value="3.2.2.1&lt;div&gt;1&lt;/div&gt;" style="whiteSpace=wrap;html=1;fillColor=#e1d5e7;strokeColor=#CC0000;shadow=0;" parent="1" vertex="1">
          <mxGeometry x="-467" y="280" width="40" height="40" as="geometry" />
        </mxCell>
        <mxCell id="tQ6YW1M86Eb9XzrXPYSI-18" value="" style="edgeStyle=orthogonalEdgeStyle;rounded=0;orthogonalLoop=1;jettySize=auto;html=1;strokeColor=#CC0000;shadow=0;" parent="1" source="tQ6YW1M86Eb9XzrXPYSI-15" target="tQ6YW1M86Eb9XzrXPYSI-17" edge="1">
          <mxGeometry relative="1" as="geometry" />
        </mxCell>
        <mxCell id="tQ6YW1M86Eb9XzrXPYSI-15" value="3.2.2.2&lt;div&gt;1&lt;/div&gt;" style="whiteSpace=wrap;html=1;fillColor=#e1d5e7;strokeColor=#CC0000;shadow=0;" parent="1" vertex="1">
          <mxGeometry x="-407" y="280" width="40" height="40" as="geometry" />
        </mxCell>
        <mxCell id="tQ6YW1M86Eb9XzrXPYSI-20" value="" style="edgeStyle=orthogonalEdgeStyle;rounded=0;orthogonalLoop=1;jettySize=auto;html=1;strokeColor=#CC0000;shadow=0;" parent="1" source="tQ6YW1M86Eb9XzrXPYSI-17" target="tQ6YW1M86Eb9XzrXPYSI-19" edge="1">
          <mxGeometry relative="1" as="geometry" />
        </mxCell>
        <mxCell id="tQ6YW1M86Eb9XzrXPYSI-17" value="3.2.2.3&lt;div&gt;1&lt;/div&gt;" style="whiteSpace=wrap;html=1;fillColor=#e1d5e7;strokeColor=#CC0000;shadow=0;" parent="1" vertex="1">
          <mxGeometry x="-347" y="280" width="40" height="40" as="geometry" />
        </mxCell>
        <mxCell id="tQ6YW1M86Eb9XzrXPYSI-23" value="" style="edgeStyle=orthogonalEdgeStyle;rounded=0;orthogonalLoop=1;jettySize=auto;html=1;strokeColor=#CC0000;shadow=0;" parent="1" source="tQ6YW1M86Eb9XzrXPYSI-19" target="tQ6YW1M86Eb9XzrXPYSI-22" edge="1">
          <mxGeometry relative="1" as="geometry" />
        </mxCell>
        <mxCell id="tQ6YW1M86Eb9XzrXPYSI-19" value="3.3.1&lt;div&gt;2&lt;/div&gt;" style="whiteSpace=wrap;html=1;fillColor=#e1d5e7;strokeColor=#CC0000;shadow=0;" parent="1" vertex="1">
          <mxGeometry x="-287" y="280" width="40" height="40" as="geometry" />
        </mxCell>
        <mxCell id="tQ6YW1M86Eb9XzrXPYSI-25" value="" style="edgeStyle=orthogonalEdgeStyle;rounded=0;orthogonalLoop=1;jettySize=auto;html=1;strokeColor=#CC0000;shadow=0;" parent="1" source="tQ6YW1M86Eb9XzrXPYSI-22" target="tQ6YW1M86Eb9XzrXPYSI-24" edge="1">
          <mxGeometry relative="1" as="geometry" />
        </mxCell>
        <mxCell id="tQ6YW1M86Eb9XzrXPYSI-22" value="3.3.3&lt;div&gt;2&lt;/div&gt;" style="whiteSpace=wrap;html=1;fillColor=#e1d5e7;strokeColor=#CC0000;shadow=0;" parent="1" vertex="1">
          <mxGeometry x="-227" y="280" width="40" height="40" as="geometry" />
        </mxCell>
        <mxCell id="tQ6YW1M86Eb9XzrXPYSI-27" value="" style="edgeStyle=orthogonalEdgeStyle;rounded=0;orthogonalLoop=1;jettySize=auto;html=1;strokeColor=#CC0000;shadow=0;" parent="1" source="tQ6YW1M86Eb9XzrXPYSI-24" target="tQ6YW1M86Eb9XzrXPYSI-26" edge="1">
          <mxGeometry relative="1" as="geometry" />
        </mxCell>
        <mxCell id="tQ6YW1M86Eb9XzrXPYSI-24" value="3.4.1&lt;div&gt;2&lt;/div&gt;" style="whiteSpace=wrap;html=1;fillColor=#e1d5e7;strokeColor=#CC0000;shadow=0;" parent="1" vertex="1">
          <mxGeometry x="-167" y="280" width="40" height="40" as="geometry" />
        </mxCell>
        <mxCell id="tQ6YW1M86Eb9XzrXPYSI-29" value="" style="edgeStyle=orthogonalEdgeStyle;rounded=0;orthogonalLoop=1;jettySize=auto;html=1;strokeColor=#CC0000;shadow=0;" parent="1" source="tQ6YW1M86Eb9XzrXPYSI-26" target="tQ6YW1M86Eb9XzrXPYSI-28" edge="1">
          <mxGeometry relative="1" as="geometry" />
        </mxCell>
        <mxCell id="tQ6YW1M86Eb9XzrXPYSI-26" value="3.4.2&lt;div&gt;1&lt;/div&gt;" style="whiteSpace=wrap;html=1;fillColor=#e1d5e7;strokeColor=#CC0000;shadow=0;" parent="1" vertex="1">
          <mxGeometry x="-107" y="280" width="40" height="40" as="geometry" />
        </mxCell>
        <mxCell id="tQ6YW1M86Eb9XzrXPYSI-28" value="3.4.3&lt;div&gt;1&lt;/div&gt;" style="whiteSpace=wrap;html=1;fillColor=#e1d5e7;strokeColor=#9673a6;shadow=0;" parent="1" vertex="1">
          <mxGeometry x="-47" y="280" width="40" height="40" as="geometry" />
        </mxCell>
        <mxCell id="tQ6YW1M86Eb9XzrXPYSI-31" value="= 32 gün" style="text;html=1;align=center;verticalAlign=middle;whiteSpace=wrap;rounded=0;shadow=0;" parent="1" vertex="1">
          <mxGeometry x="-67" y="330" width="60" height="30" as="geometry" />
        </mxCell>
        <mxCell id="tQ6YW1M86Eb9XzrXPYSI-32" value="Kritik yol=" style="text;html=1;align=center;verticalAlign=middle;whiteSpace=wrap;rounded=0;" parent="1" vertex="1">
          <mxGeometry x="-827" y="285" width="60" height="30" as="geometry" />
        </mxCell>
        <mxCell id="tQ6YW1M86Eb9XzrXPYSI-33" value="&lt;b&gt;&lt;font style=&quot;font-size: 18px;&quot;&gt;Analiz İş Paketi&lt;/font&gt;&lt;/b&gt;" style="text;html=1;align=center;verticalAlign=middle;whiteSpace=wrap;rounded=0;" parent="1" vertex="1">
          <mxGeometry x="-480" y="40" width="150" height="30" as="geometry" />
        </mxCell>
        <mxCell id="OIfGznUzoKerE5-syVy0-3" value="" style="endArrow=classic;html=1;rounded=0;entryX=0;entryY=0.5;entryDx=0;entryDy=0;" edge="1" parent="1" target="sYUhzM4Op0ek-H_ljY2F-3">
          <mxGeometry width="50" height="50" relative="1" as="geometry">
            <mxPoint x="-247" y="120" as="sourcePoint" />
            <mxPoint x="-227" y="90" as="targetPoint" />
          </mxGeometry>
        </mxCell>
        <mxCell id="OIfGznUzoKerE5-syVy0-4" value="" style="endArrow=classic;html=1;rounded=0;entryX=0;entryY=0;entryDx=0;entryDy=0;" edge="1" parent="1" target="sYUhzM4Op0ek-H_ljY2F-2">
          <mxGeometry width="50" height="50" relative="1" as="geometry">
            <mxPoint x="-187" y="110" as="sourcePoint" />
            <mxPoint x="-170" y="120" as="targetPoint" />
          </mxGeometry>
        </mxCell>
        <mxCell id="OIfGznUzoKerE5-syVy0-5" value="" style="endArrow=classic;html=1;rounded=0;entryX=0;entryY=0.5;entryDx=0;entryDy=0;strokeColor=#CC0000;" edge="1" parent="1" target="sYUhzM4Op0ek-H_ljY2F-13">
          <mxGeometry width="50" height="50" relative="1" as="geometry">
            <mxPoint x="-667" y="120" as="sourcePoint" />
            <mxPoint x="-617" y="70" as="targetPoint" />
          </mxGeometry>
        </mxCell>
      </root>
    </mxGraphModel>
  </diagram>
</mxfile>
